<svg width="245" height="76" viewBox="0 0 245 76" fill="none" xmlns="http://www.w3.org/2000/svg">
<path d="M168.772 15.2893L168.297 15.1113C168.169 15.0634 168.039 15.1763 168.069 15.3094L168.473 17.1298C168.823 18.7052 169 20.3142 169 21.9281C169 22.9747 168.926 24.02 168.778 25.0561L168.5 27C168.167 28.9969 167.678 30.9647 167.038 32.8853L166.5 34.5C165.504 37.1552 164.148 39.6924 162.5 42L160 45L158.367 46.6329C157.457 47.5427 156.624 48.5262 155.876 49.5733C154.961 50.8545 154.178 52.2249 153.538 53.6637L152.5 56C151.504 58.6554 150.857 61.4289 150.575 64.2508L150.5 65V69C150.5 70.9794 150.902 72.9381 151.682 74.7574L151.924 75.323C151.971 75.4333 152.072 75.5119 152.19 75.5317L153.274 75.7123C154.423 75.9038 155.585 76 156.75 76C157.915 76 159.077 75.9038 160.226 75.7123L161.9 75.4334C163.631 75.1449 165.336 74.7213 167.001 74.1663L167.254 74.0819C169.412 73.3628 171.484 72.4097 173.434 71.2397C174.809 70.4145 176.119 69.4843 177.351 68.4574L178.5 67.5L180.5 65.5L181.097 64.9034C182.03 63.9701 182.869 62.9468 183.601 61.8486C184.199 60.951 184.724 60.0066 185.171 59.0245L185.532 58.2307C186.507 56.084 187.234 53.8324 187.696 51.5201L188 50L188.5 45.5C188.5 41.8496 188.013 38.2155 187.053 34.6938L187 34.5L185.886 31.714C185.296 30.2409 184.577 28.8233 183.736 27.4779C182.914 26.1618 181.978 24.9199 180.94 23.7663L180.517 23.2971C178.846 21.4397 176.948 19.7987 174.869 18.4126C172.963 17.1417 170.917 16.0938 168.772 15.2893Z" fill="#EA2642"/>
<path d="M159.5 2.5L157.849 0.436219C157.663 0.203515 157.316 0.18429 157.105 0.395012L136 21.5L133 24.5L132.24 25.45C131.415 26.4818 130.671 27.5762 130.015 28.7234C129.339 29.9059 128.76 31.1407 128.282 32.4159L127.5 34.5L127.125 35.6243C126.709 36.8722 126.406 38.1551 126.22 39.4573C126.074 40.4845 126 41.5208 126 42.5583V43.5V45.3542C126 47.1138 126.174 48.869 126.519 50.5944C126.839 52.1948 127.305 53.7624 127.911 55.2778L128.049 55.622C128.682 57.2042 129.454 58.7268 130.357 60.1718C131.118 61.3889 131.969 62.5472 132.903 63.6368L134.5 65.5L136.828 67.8281C137.608 68.6084 138.443 69.3323 139.326 69.9944C141.1 71.3247 143.054 72.3952 145.13 73.1737L146 73.5L148.573 74.6029C148.954 74.7658 149.356 74.4232 149.256 74.0221L148.5 71C148.167 69.3374 148 67.646 148 65.9505V65L148.049 64.6119C148.349 62.2076 148.834 59.8299 149.5 57.5L149.579 57.2251C150.192 55.0796 151.002 52.9957 152 51L154 48L156 45.5L157.439 44.0613C158.478 43.0222 159.429 41.8991 160.283 40.7033C161.093 39.5695 161.813 38.374 162.436 37.1278L163.5 35C164.497 33.006 165.273 30.9089 165.813 28.746L166 28L166.5 24C166.5 21.009 166.173 18.0269 165.524 15.1072L165.5 15C165.168 13.3378 164.663 11.7147 163.996 10.1566L163.5 9C162.502 7.00307 161.348 5.08743 160.05 3.27065L159.5 2.5Z" fill="#62AC34"/>
<path d="M21.0938 38.9922H13.1133V61H8.70117V38.9922H0.791016V35.4062H21.0938V38.9922ZM44.4023 48.8711C44.4023 51.3789 43.9688 53.582 43.1016 55.4805C42.2344 57.3672 40.9922 58.8203 39.375 59.8398C37.7695 60.8477 35.918 61.3516 33.8203 61.3516C31.7461 61.3516 29.8945 60.8477 28.2656 59.8398C26.6484 58.8203 25.3945 57.373 24.5039 55.498C23.625 53.623 23.1797 51.4609 23.168 49.0117V47.5703C23.168 45.0742 23.6074 42.8711 24.4863 40.9609C25.377 39.0508 26.625 37.5918 28.2305 36.584C29.8477 35.5645 31.6992 35.0547 33.7852 35.0547C35.8711 35.0547 37.7168 35.5586 39.3223 36.5664C40.9395 37.5625 42.1875 39.0039 43.0664 40.8906C43.9453 42.7656 44.3906 44.9512 44.4023 47.4473V48.8711ZM39.9551 47.5352C39.9551 44.6992 39.416 42.5254 38.3379 41.0137C37.2715 39.502 35.7539 38.7461 33.7852 38.7461C31.8633 38.7461 30.3574 39.502 29.2676 41.0137C28.1895 42.5137 27.6387 44.6406 27.6152 47.3945V48.8711C27.6152 51.6836 28.1602 53.8574 29.25 55.3926C30.3516 56.9277 31.875 57.6953 33.8203 57.6953C35.7891 57.6953 37.3008 56.9453 38.3555 55.4453C39.4219 53.9453 39.9551 51.7539 39.9551 48.8711V47.5352ZM54.5977 35.4062L61.9805 55.0234L69.3457 35.4062H75.0938V61H70.6641V52.5625L71.1035 41.2773L63.5449 61H60.3633L52.8223 41.2949L53.2617 52.5625V61H48.832V35.4062H54.5977ZM95.0098 55.041H85.0957L83.0215 61H78.3984L88.0664 35.4062H92.0566L101.742 61H97.1016L95.0098 55.041ZM86.3438 51.4551H93.7617L90.0527 40.8379L86.3438 51.4551ZM121.043 38.9922H113.062V61H108.65V38.9922H100.74V35.4062H121.043V38.9922ZM195.082 61V35.4062H203.854C206.748 35.4062 208.951 35.9863 210.463 37.1465C211.975 38.3066 212.73 40.0352 212.73 42.332C212.73 43.5039 212.414 44.5586 211.781 45.4961C211.148 46.4336 210.223 47.1602 209.004 47.6758C210.387 48.0508 211.453 48.7598 212.203 49.8027C212.965 50.834 213.346 52.0762 213.346 53.5293C213.346 55.9316 212.572 57.7773 211.025 59.0664C209.49 60.3555 207.287 61 204.416 61H195.082ZM199.529 49.4512V57.4492H204.469C205.863 57.4492 206.953 57.1035 207.738 56.4121C208.523 55.7207 208.916 54.7598 208.916 53.5293C208.916 50.8691 207.557 49.5098 204.838 49.4512H199.529ZM199.529 46.1816H203.889C205.271 46.1816 206.35 45.8711 207.123 45.25C207.908 44.6172 208.301 43.7266 208.301 42.5781C208.301 41.3125 207.938 40.3984 207.211 39.8359C206.496 39.2734 205.377 38.9922 203.854 38.9922H199.529V46.1816ZM222.486 61H218.057V35.4062H222.486V61ZM232.4 57.4492H244.02V61H227.953V35.4062H232.4V57.4492Z" fill="#373A3C"/>
</svg>
